<svg width="24" height="24" viewBox="0 0 24 24" fill="none" xmlns="http://www.w3.org/2000/svg">
<path d="M17.6032 4.00024H19.4016C20.2852 4.00024 21.0015 4.71656 21.0015 5.60019V18.3998C21.0015 19.2834 20.2852 19.9997 19.4016 19.9997H17.6016" stroke="white" stroke-linecap="round" stroke-linejoin="round"/>
<path d="M17.6016 16.8001H17.8031" stroke="white" stroke-linecap="round"/>
<path d="M17.6 7.2002C17.9313 7.2002 18.2 7.46882 18.2 7.80018V9.00014C18.2 9.33149 17.9313 9.60012 17.6 9.60012C17.2686 9.60012 17 9.33149 17 9.00014V7.80018C17 7.46882 17.2686 7.2002 17.6 7.2002Z" fill="white"/>
<path d="M13.5 2H3.5C2.39543 2 1.5 2.89543 1.5 4V20C1.5 21.1046 2.39543 22 3.5 22H13.5C14.6046 22 15.5 21.1046 15.5 20V4C15.5 2.89543 14.6046 2 13.5 2Z" stroke="white" stroke-width="1.5" stroke-linecap="round" stroke-linejoin="round"/>
<path d="M5.5 18H11.5" stroke="white" stroke-width="1.5" stroke-linecap="round"/>
<path d="M10.75 6C11.1642 6 11.5 6.33579 11.5 6.75V8.25C11.5 8.66421 11.1642 9 10.75 9H6.25C5.83579 9 5.5 8.66421 5.5 8.25V6.75C5.5 6.33579 5.83579 6 6.25 6H10.75Z" fill="white"/>
</svg>
