<svg width="1307" height="435" viewBox="0 0 1307 435" fill="none" xmlns="http://www.w3.org/2000/svg">
<path d="M1134.77 148.785V358.995H1197.17V260.325C1197.17 240.565 1202.24 226.005 1212.38 216.645C1222.52 207.025 1235.91 202.215 1252.55 202.215C1254.63 202.215 1256.71 202.345 1258.79 202.605C1261.13 202.865 1263.73 203.125 1266.59 203.385V146.055C1246.57 146.055 1229.67 149.955 1215.89 157.755C1207.27 162.476 1200.12 168.624 1194.44 176.199V148.785H1134.77Z" fill="#1B3049"/>
<path d="M994.286 362.115C971.926 362.115 952.036 357.435 934.616 348.075C917.456 338.715 903.806 325.975 893.666 309.855C883.786 293.475 878.846 274.755 878.846 253.695C878.846 232.635 883.786 214.045 893.666 197.925C903.806 181.805 917.456 169.195 934.616 160.095C952.036 150.735 971.926 146.055 994.286 146.055C1016.65 146.055 1036.54 150.605 1053.96 159.705C1071.64 168.805 1085.42 181.545 1095.3 197.925C1105.18 214.045 1110.12 232.635 1110.12 253.695C1110.12 274.755 1105.18 293.475 1095.3 309.855C1085.42 325.975 1071.64 338.715 1053.96 348.075C1036.54 357.435 1016.65 362.115 994.286 362.115ZM994.286 311.025C1004.43 311.025 1013.4 308.815 1021.2 304.395C1029 299.715 1035.11 293.085 1039.53 284.505C1044.21 275.925 1046.55 265.655 1046.55 253.695C1046.55 241.735 1044.21 231.595 1039.53 223.275C1035.11 214.695 1029 208.195 1021.2 203.775C1013.4 199.355 1004.56 197.145 994.676 197.145C984.536 197.145 975.566 199.355 967.766 203.775C959.966 208.195 953.726 214.695 949.046 223.275C944.366 231.595 942.026 241.735 942.026 253.695C942.026 265.655 944.366 275.925 949.046 284.505C953.726 293.085 959.966 299.715 967.766 304.395C975.566 308.815 984.406 311.025 994.286 311.025Z" fill="#1B3049"/>
<path d="M753.296 102.375V154.245H720.926V201.825H753.296V286.065C753.296 311.545 760.186 330.655 773.966 343.395C788.006 355.875 807.636 362.115 832.856 362.115C842.216 362.115 851.186 361.075 859.766 358.995C868.606 356.655 876.146 353.405 882.386 349.245L866.006 305.175C859.246 310.115 851.056 312.585 841.436 312.585C833.636 312.585 827.396 310.245 822.716 305.565C818.296 300.625 816.086 293.865 816.086 285.285V201.825H867.566V154.245H816.086V102.375H753.296Z" fill="#1B3049"/>
<path d="M616.638 362.115C599.218 362.115 583.878 358.215 570.618 350.415C564.527 346.832 559.067 342.399 554.238 337.115V434.655H491.838V148.785H551.508V172.639C556.667 166.583 562.647 161.622 569.448 157.755C582.708 149.955 598.438 146.055 616.638 146.055C636.398 146.055 654.078 150.475 669.678 159.315C685.538 168.155 698.018 180.635 707.118 196.755C716.478 212.875 721.158 231.985 721.158 254.085C721.158 276.185 716.478 295.295 707.118 311.415C698.018 327.535 685.538 340.015 669.678 348.855C654.078 357.695 636.398 362.115 616.638 362.115ZM605.718 311.025C615.598 311.025 624.438 308.815 632.238 304.395C640.038 299.715 646.278 293.085 650.958 284.505C655.638 275.925 657.978 265.785 657.978 254.085C657.978 242.125 655.638 231.855 650.958 223.275C646.278 214.695 640.038 208.195 632.238 203.775C624.438 199.355 615.598 197.145 605.718 197.145C595.838 197.145 586.868 199.355 578.808 203.775C571.008 208.195 564.768 214.695 560.088 223.275C555.408 231.855 553.068 242.125 553.068 254.085C553.068 265.785 555.408 275.925 560.088 284.505C564.768 293.085 571.008 299.715 578.808 304.395C586.868 308.815 595.838 311.025 605.718 311.025Z" fill="#1B3049"/>
<path fill-rule="evenodd" clip-rule="evenodd" d="M373.604 313.365C381.664 308.685 387.384 301.665 390.764 292.305V271.635H350.594C336.554 271.635 326.934 273.845 321.734 278.265C316.534 282.685 313.934 288.535 313.934 295.815C313.934 303.355 316.794 309.335 322.514 313.755C328.494 318.175 336.684 320.385 347.084 320.385C356.964 320.385 365.804 318.045 373.604 313.365ZM394.664 332.939V358.995H453.554V239.655C453.554 207.415 444.584 183.755 426.644 168.675C408.964 153.595 383.874 146.055 351.374 146.055C334.734 146.055 318.354 148.265 302.234 152.685C286.114 156.845 272.204 163.085 260.504 171.405L282.734 214.695C290.274 208.715 299.374 204.035 310.034 200.655C320.954 197.015 331.874 195.195 342.794 195.195C359.174 195.195 371.264 198.835 379.064 206.115C386.707 212.994 390.605 222.744 390.759 235.365H343.184C321.864 235.365 304.574 238.095 291.314 243.555C278.054 248.755 268.304 256.165 262.064 265.785C256.084 275.145 253.094 286.065 253.094 298.545C253.094 310.505 256.084 321.295 262.064 330.915C268.304 340.535 277.274 348.205 288.974 353.925C300.674 359.385 314.714 362.115 331.094 362.115C349.554 362.115 364.634 358.605 376.334 351.585C384.108 346.747 390.218 340.532 394.664 332.939Z" fill="#1B3049"/>
<path fill-rule="evenodd" clip-rule="evenodd" d="M0.589844 358.992V85.9922H119.54C144.24 85.9922 165.43 90.0222 183.11 98.0822C200.79 105.882 214.44 117.322 224.06 132.402C233.94 147.222 238.88 164.772 238.88 185.052C238.88 205.592 233.94 223.272 224.06 238.092C214.44 252.652 200.79 263.832 183.11 271.632L183.082 271.645L243.95 358.992H173.75L121.616 283.323C120.926 283.329 120.235 283.332 119.54 283.332H65.7198V358.992H0.589844ZM158.54 219.372C149.18 227.692 135.01 231.852 116.03 231.852H65.7198V138.642H116.03C135.01 138.642 149.18 142.802 158.54 151.122C168.16 159.182 172.97 170.492 172.97 185.052C172.97 199.612 168.16 211.052 158.54 219.372Z" fill="#1B3049"/>
<path d="M1306.37 0.382812C1143.66 86.4456 854.159 -71.8145 755.987 72.1437C878.855 3.41408 1016.93 189.985 1057.78 109.226C990.441 97.5728 987.763 75.4766 889.263 48.4804C995.794 59.1277 1099.03 151.41 1224.76 73.6569C1087.31 91.4053 1010.53 36.5843 865.827 33.6085C983.603 6.83033 1242.95 133.914 1306.37 0.382812Z" fill="url(#paint0_linear_122_6)"/>
<defs>
<linearGradient id="paint0_linear_122_6" x1="1293.38" y1="10.8206" x2="751.389" y2="148.242" gradientUnits="userSpaceOnUse">
<stop stop-color="#F12711"/>
<stop offset="1" stop-color="#F5AF19"/>
</linearGradient>
</defs>
</svg>
