<svg width="24" height="24" viewBox="0 0 24 24" fill="none" xmlns="http://www.w3.org/2000/svg">
<path d="M19.1058 12.2073H17.2092C16.1617 12.2073 15.3125 13.0564 15.3125 14.1039V19.794C15.3125 20.8415 16.1617 21.6906 17.2092 21.6906H19.1058C20.1533 21.6906 21.0025 20.8415 21.0025 19.794V14.1039C21.0025 13.0564 20.1533 12.2073 19.1058 12.2073Z" stroke="white" stroke-width="1.5" stroke-linecap="round" stroke-linejoin="round"/>
<path d="M11.5156 14.5786H11.5252" stroke="white" stroke-width="1.5" stroke-linecap="round" stroke-linejoin="round"/>
<path d="M12.2267 19.32H4.87714C4.37411 19.32 3.89168 19.1202 3.53599 18.7645C3.1803 18.4088 2.98047 17.9264 2.98047 17.4234V4.14667C2.98047 3.64364 3.1803 3.16122 3.53599 2.80552C3.89168 2.44983 4.37411 2.25 4.87714 2.25H6.77381C7.27684 2.25 7.75926 2.44983 8.11496 2.80552C8.47065 3.16122 8.67048 3.64364 8.67048 4.14667V9.36251C8.67028 9.44773 8.69305 9.53142 8.73639 9.60478C8.77973 9.67815 8.84203 9.73848 8.91676 9.77944C8.99148 9.82039 9.07586 9.84045 9.16103 9.83751C9.24619 9.83456 9.32898 9.80873 9.4007 9.76271L13.6312 7.06565C13.7029 7.01988 13.7856 6.99425 13.8706 6.99144C13.9557 6.98862 14.0399 7.00873 14.1144 7.04965C14.189 7.09058 14.2512 7.15081 14.2945 7.22403C14.3378 7.29726 14.3606 7.38078 14.3605 7.46584V9.36251C14.3604 9.44758 14.3832 9.5311 14.4265 9.60433C14.4698 9.67755 14.532 9.73778 14.6065 9.7787C14.6811 9.81963 14.7653 9.83974 14.8503 9.83692C14.9354 9.83411 15.0181 9.80848 15.0898 9.76271L19.3212 7.06565C19.3929 7.01988 19.4756 6.99425 19.5607 6.99144C19.6457 6.98862 19.7299 7.00873 19.8045 7.04965C19.879 7.09058 19.9412 7.15081 19.9845 7.22403C20.0278 7.29726 20.0506 7.38078 20.0505 7.46584L20.0505 8.65126" stroke="white" stroke-width="1.5" stroke-linecap="round" stroke-linejoin="round"/>
<path d="M7.72266 14.5786H7.73226" stroke="white" stroke-width="1.5" stroke-linecap="round" stroke-linejoin="round"/>
</svg>
