<svg width="24" height="24" viewBox="0 0 24 24" fill="none" xmlns="http://www.w3.org/2000/svg">
<path d="M21.0192 21V20.1414C21.0192 19.686 20.8401 19.2492 20.5213 18.9272C20.2026 18.6052 19.7703 18.4242 19.3195 18.4242H16.77C16.3192 18.4242 15.8869 18.6052 15.5681 18.9272C15.2494 19.2492 15.0703 19.686 15.0703 20.1414V21M19.7444 14.9899C19.7444 15.9383 18.9834 16.7071 18.0447 16.7071C17.106 16.7071 16.3451 15.9383 16.3451 14.9899C16.3451 14.0415 17.106 13.2727 18.0447 13.2727C18.9834 13.2727 19.7444 14.0415 19.7444 14.9899Z" stroke="white" stroke-width="1.5" stroke-linecap="round" stroke-linejoin="round"/>
<path d="M11.5352 15.6175H11.5448" stroke="white" stroke-width="1.5" stroke-linecap="round" stroke-linejoin="round"/>
<path d="M12.2463 20.3589H4.89667C4.39364 20.3589 3.91122 20.1591 3.55552 19.8034C3.19983 19.4477 3 18.9652 3 18.4622V5.18551C3 4.68248 3.19983 4.20006 3.55552 3.84436C3.91122 3.48867 4.39364 3.28884 4.89667 3.28884H6.79334C7.29637 3.28884 7.7788 3.48867 8.13449 3.84436C8.49018 4.20006 8.69001 4.68248 8.69001 5.18551V10.4014C8.68981 10.4866 8.71258 10.5703 8.75592 10.6436C8.79926 10.717 8.86156 10.7773 8.93629 10.8183C9.01101 10.8592 9.0954 10.8793 9.18056 10.8763C9.26572 10.8734 9.34851 10.8476 9.42023 10.8016L13.6508 8.10449C13.7225 8.05872 13.8052 8.03309 13.8902 8.03028C13.9752 8.02746 14.0594 8.04757 14.134 8.0885C14.2085 8.12942 14.2707 8.18965 14.314 8.26288C14.3573 8.3361 14.3801 8.41962 14.38 8.50469V10.4014C14.3799 10.4864 14.4027 10.5699 14.446 10.6432C14.4893 10.7164 14.5515 10.7766 14.6261 10.8175C14.7007 10.8585 14.7849 10.8786 14.8699 10.8758C14.9549 10.873 15.0376 10.8473 15.1093 10.8016L19.3408 8.10449C19.4125 8.05872 19.4952 8.03309 19.5802 8.03028C19.6652 8.02746 19.7494 8.04757 19.824 8.0885C19.8986 8.12942 19.9607 8.18965 20.004 8.26288C20.0473 8.3361 20.0701 8.41962 20.07 8.50469L20.07 9.6901" stroke="white" stroke-width="1.5" stroke-linecap="round" stroke-linejoin="round"/>
<path d="M7.74219 15.6175H7.75179" stroke="white" stroke-width="1.5" stroke-linecap="round" stroke-linejoin="round"/>
</svg>
