<svg width="24" height="24" viewBox="0 0 24 24" fill="none" xmlns="http://www.w3.org/2000/svg">
<path d="M7.58594 15.7502H10.2526" stroke="white" stroke-linecap="round" stroke-linejoin="round"/>
<path d="M7.58594 13.0835H10.2526" stroke="white" stroke-linecap="round" stroke-linejoin="round"/>
<path d="M10.2526 21.7503V19.7503C10.2526 19.3967 10.1121 19.0576 9.86209 18.8075C9.61204 18.5575 9.2729 18.417 8.91928 18.417C8.56565 18.417 8.22651 18.5575 7.97646 18.8075C7.72641 19.0576 7.58594 19.3967 7.58594 19.7503V21.7503" stroke="white" stroke-linecap="round" stroke-linejoin="round"/>
<path d="M4.91668 14.417H3.58334C3.22971 14.417 2.89057 14.5575 2.64053 14.8075C2.39048 15.0576 2.25 15.3967 2.25 15.7503V20.417C2.25 20.7706 2.39048 21.1098 2.64053 21.3598C2.89057 21.6099 3.22971 21.7504 3.58334 21.7504H14.25C14.6037 21.7504 14.9428 21.6099 15.1929 21.3598C15.4429 21.1098 15.5834 20.7706 15.5834 20.417V13.7503C15.5834 13.3967 15.4429 13.0576 15.1929 12.8075C14.9428 12.5575 14.6037 12.417 14.25 12.417H12.9167" stroke="white" stroke-linecap="round" stroke-linejoin="round"/>
<path d="M4.91406 21.7503V11.0836C4.91406 10.73 5.05454 10.3908 5.30459 10.1408C5.55464 9.89072 5.89378 9.75024 6.2474 9.75024H11.5808C11.9344 9.75024 12.2735 9.89072 12.5236 10.1408C12.7736 10.3908 12.9141 10.73 12.9141 11.0836V21.7503" stroke="white" stroke-linecap="round" stroke-linejoin="round"/>
<path d="M19.7468 13.8138V11.7899C19.7468 11.2279 19.5235 10.6889 19.1262 10.2915C18.7288 9.89415 18.1898 9.6709 17.6278 9.6709H14.4492" stroke="white" stroke-linecap="round" stroke-linejoin="round"/>
<path d="M16.0331 8.30179C17.2034 8.30179 18.1521 7.35307 18.1521 6.18275C18.1521 5.01244 17.2034 4.06372 16.0331 4.06372C14.8628 4.06372 13.9141 5.01244 13.9141 6.18275C13.9141 7.35307 14.8628 8.30179 16.0331 8.30179Z" stroke="white" stroke-linecap="round" stroke-linejoin="round"/>
<path d="M19.4883 4.09668C19.9202 4.20866 20.3028 4.46091 20.5759 4.81382C20.849 5.16673 20.9971 5.60033 20.9971 6.04656C20.9971 6.4928 20.849 6.9264 20.5759 7.27931C20.3028 7.63222 19.9202 7.88447 19.4883 7.99645" stroke="white" stroke-linecap="round" stroke-linejoin="round"/>
<path d="M21.749 13.8137V11.3065C21.7487 10.8602 21.6002 10.4267 21.3267 10.0739C21.0533 9.72118 20.6704 9.46924 20.2383 9.35767" stroke="white" stroke-linecap="round" stroke-linejoin="round"/>
</svg>
