<svg width="24" height="24" viewBox="0 0 24 24" fill="none" xmlns="http://www.w3.org/2000/svg">
<path d="M8 22H5C4 22 3 21.3571 3 20.7143V14.2857C3 13.6429 4 13 5 13H8" stroke="white" stroke-width="2" stroke-linecap="round" stroke-linejoin="round"/>
<path d="M16 13H19C20 13 21 13.6429 21 14.2857V20.7143C21 21.3571 20 22 19 22H16" stroke="white" stroke-width="2" stroke-linecap="round" stroke-linejoin="round"/>
<path d="M16 3H21V8" stroke="white" stroke-width="2" stroke-linecap="round" stroke-linejoin="round"/>
<path d="M8 3H3V8" stroke="white" stroke-width="2" stroke-linecap="round" stroke-linejoin="round"/>
<path d="M12 22V13.7C12.0057 13.1674 11.905 12.639 11.7037 12.1458C11.5025 11.6526 11.2047 11.2046 10.828 10.828L3 3" stroke="white" stroke-width="2" stroke-linecap="round" stroke-linejoin="round"/>
<path d="M15 9L21 3" stroke="white" stroke-width="2" stroke-linecap="round" stroke-linejoin="round"/>
</svg>
