<svg width="24" height="24" viewBox="0 0 24 24" fill="none" xmlns="http://www.w3.org/2000/svg">
<path fill-rule="evenodd" clip-rule="evenodd" d="M19.1309 3.00391L19 3L7.00002 3.00098C6.46192 3.00098 5.93367 3.14465 5.47073 3.41895C5.01254 3.69046 4.63523 4.07937 4.37698 4.54492L2.69241 7.49902C2.68605 7.50998 2.6798 7.52101 2.67385 7.53223L1.26956 9.99902C1.09526 10.3003 1.0018 10.642 1.00002 10.9902C0.998305 11.3423 1.08965 11.6886 1.26467 11.9941C1.43985 12.2998 1.69319 12.5539 1.99807 12.7305C2.30262 12.9068 2.64811 13 3.00002 13H4.13967L5.56936 11H3.00002L3.00588 10.9893L4.13967 9H9.27834H11.5811H16.7217H19L19.5459 8.08203L20.7324 5.99902C20.9064 5.69753 20.9996 5.35603 21.001 5.00781C21.0024 4.65576 20.9116 4.30924 20.7364 4.00391C20.561 3.69851 20.3078 3.44488 20.003 3.26855C19.736 3.11418 19.4374 3.02379 19.1309 3.00391ZM17.8614 7H12.7207L13.8604 5H19.001L18.9961 5.00977L17.8614 7ZM6.49026 5.13965C6.64457 5.04821 6.82066 5 7.00002 5H11.5586L10.419 7H5.27932L6.11428 5.53516L6.12307 5.51953C6.20921 5.36231 6.33602 5.23105 6.49026 5.13965Z" fill="white"/>
<path d="M21 10L21.1309 10.0039C21.4374 10.0238 21.736 10.1142 22.003 10.2686C22.3078 10.4449 22.561 10.6985 22.7364 11.0039C22.9116 11.3092 23.0024 11.6558 23.001 12.0078C22.9996 12.356 22.9064 12.6975 22.7324 12.999L22.7334 13L21.5459 15.082L22.9317 18.6367C23.1321 19.1513 22.877 19.7312 22.3623 19.9316C21.8478 20.132 21.2679 19.8778 21.0674 19.3633L20.2705 17.3193L19.6299 18.4424L19.6309 18.4434C19.3722 18.9147 18.992 19.3082 18.5293 19.582C18.0664 19.856 17.5379 20.0002 17 20H5.00002V19.999C4.64811 19.999 4.30262 19.9068 3.99807 19.7305C3.69319 19.5539 3.43985 19.2998 3.26467 18.9941C3.08965 18.6886 2.9983 18.3423 3.00002 17.9902C3.0018 17.642 3.09526 17.3003 3.26956 16.999H3.26858L4.67385 14.5322C4.6798 14.521 4.68605 14.51 4.69241 14.499L6.37698 11.5449C6.63523 11.0794 7.01254 10.6905 7.47073 10.4189C7.93367 10.1446 8.46192 10.001 9.00002 10.001V10H21ZM5.00588 17.9893L5.00002 18H10.1387L11.2783 16H6.13967L5.00588 17.9893ZM12.4414 18H17.001C17.1802 18 17.3565 17.9516 17.5108 17.8604C17.6648 17.7691 17.7918 17.6384 17.878 17.4814L17.8858 17.4668L18.7217 16H13.5811L12.4414 18ZM14.7207 14H19.8614L20.9961 12.0098L21.001 12H15.8604L14.7207 14ZM9.00002 12C8.82066 12 8.64457 12.0482 8.49026 12.1396C8.33602 12.231 8.20921 12.3623 8.12307 12.5195C8.1203 12.5246 8.11714 12.5301 8.11428 12.5352L7.27932 14H12.419L13.5586 12H9.00002Z" fill="white"/>
</svg>
