<svg width="24" height="24" viewBox="0 0 24 24" fill="none" xmlns="http://www.w3.org/2000/svg">
<path d="M17 2H7C5.89543 2 5 2.89543 5 4V20C5 21.1046 5.89543 22 7 22H17C18.1046 22 19 21.1046 19 20V4C19 2.89543 18.1046 2 17 2Z" stroke="white" stroke-width="2" stroke-linecap="round" stroke-linejoin="round"/>
<line x1="9" y1="18" x2="15" y2="18" stroke="white" stroke-width="2" stroke-linecap="round"/>
<path d="M15 5C15.5523 5 16 5.44772 16 6V8C16 8.55228 15.5523 9 15 9H9C8.44772 9 8 8.55228 8 8V6C8 5.44772 8.44772 5 9 5H15Z" fill="white"/>
</svg>
