<svg width="24" height="24" viewBox="0 0 24 24" fill="none" xmlns="http://www.w3.org/2000/svg">
<path d="M20 7L20.1309 7.00391C20.4374 7.02379 20.736 7.11418 21.003 7.26855C21.3078 7.44488 21.561 7.69851 21.7364 8.00391C21.9116 8.30924 22.0024 8.65576 22.001 9.00781C21.9996 9.35603 21.9064 9.69753 21.7324 9.99902L21.7334 10L20.5459 12.082L21.9317 15.6367C22.1321 16.1513 21.877 16.7312 21.3623 16.9316C20.8478 17.132 20.2679 16.8778 20.0674 16.3633L19.2705 14.3193L18.6299 15.4424L18.6309 15.4434C18.3722 15.9147 17.992 16.3082 17.5293 16.582C17.0664 16.856 16.5379 17.0002 16 17H4.00002V16.999C3.64811 16.999 3.30262 16.9068 2.99807 16.7305C2.69319 16.5539 2.43985 16.2998 2.26467 15.9941C2.08965 15.6886 1.9983 15.3423 2.00002 14.9902C2.0018 14.642 2.09526 14.3003 2.26956 13.999H2.26858L3.67385 11.5322C3.6798 11.521 3.68605 11.51 3.69241 11.499L5.37698 8.54492C5.63523 8.07937 6.01254 7.69046 6.47073 7.41895C6.93367 7.14465 7.46192 7.00098 8.00002 7.00098V7H20ZM4.00588 14.9893L4.00002 15H9.1387L10.2783 13H5.13967L4.00588 14.9893ZM11.4414 15H16.001C16.1802 15 16.3565 14.9516 16.5108 14.8604C16.6648 14.7691 16.7918 14.6384 16.878 14.4814L16.8858 14.4668L17.7217 13H12.5811L11.4414 15ZM13.7207 11H18.8614L19.9961 9.00977L20.001 9H14.8604L13.7207 11ZM8.00002 9C7.82066 9 7.64457 9.04821 7.49026 9.13965C7.33602 9.23105 7.20921 9.36231 7.12307 9.51953C7.1203 9.52459 7.11714 9.53014 7.11428 9.53516L6.27932 11H11.419L12.5586 9H8.00002Z" fill="white"/>
</svg>
